<svg width="1920" height="80" viewBox="0 0 1920 80" fill="none" xmlns="http://www.w3.org/2000/svg">
<path d="M736.294 1.75C766.097 1.75001 792.942 3.0929 815.864 5.20117L820.125 5.60742C841.245 7.68256 859.637 10.4625 877.312 13.6406L880.832 14.2822C917.041 20.9749 948.345 29.5563 980.986 38.0713L987.327 39.7178C1019.14 47.9409 1052.61 55.9587 1089.43 61.9658L1093.11 62.5596C1111.55 65.4925 1130.37 67.8681 1150.63 69.5127L1154.69 69.833C1175.07 71.3819 1196.32 72.1875 1218.87 72.1875C1260.97 72.1875 1293.48 70.3184 1323.28 67.2188L1326.06 66.9248C1354.68 63.8504 1378.98 59.6802 1400.55 55.4668V55.4658L1404.69 54.6523C1425.27 50.5812 1443.7 46.5269 1462.94 43.3076L1464.87 42.9873C1474.59 41.4021 1484.81 40.05 1496.22 38.9844H1496.22L1498.54 38.7744C1510.32 37.7436 1524.65 36.9717 1540.59 36.9717C1620.2 36.9717 1644.47 36.9946 1682.57 37.0176C1720.67 37.0406 1772.62 37.0635 1907.58 37.0635C1911.87 37.0635 1916.01 37.2255 1919.09 37.5186L1920.19 37.6338C1921.23 37.7546 1922.1 37.8925 1922.77 38.0469C1923.21 38.147 1923.64 38.2718 1923.99 38.4404C1924.17 38.5227 1924.41 38.6547 1924.62 38.8613C1924.84 39.0677 1925.16 39.4828 1925.16 40.0947C1925.16 40.7068 1924.84 41.1227 1924.62 41.3291C1924.41 41.5356 1924.17 41.6667 1923.99 41.749C1923.64 41.9176 1923.21 42.0424 1922.77 42.1426C1922.1 42.297 1921.23 42.4349 1920.19 42.5557L1919.09 42.6709C1916.01 42.964 1911.87 43.126 1907.58 43.126C1772.58 43.126 1720.63 43.1028 1682.53 43.0791C1644.43 43.0554 1620.18 43.0313 1540.59 43.0312C1534.75 43.0312 1528.01 43.2553 1520.2 43.9355L1518.63 44.0781C1510.16 44.8663 1501.03 46.213 1491.58 47.7969H1491.58C1473.84 50.7677 1455.63 54.7558 1434.56 58.918L1430.3 59.7529C1407.43 64.2083 1381.46 68.7076 1347.71 72.2109L1347.72 72.2119C1313.98 75.7181 1271.52 78.25 1218.87 78.25C1186.02 78.25 1156.12 76.9926 1130.28 74.8975H1130.28C1106.05 72.9304 1084.48 70.2221 1064.72 67.0928L1060.8 66.4609C1021.76 60.0876 988.31 51.9382 956.438 43.6797L950.083 42.0273C916.279 33.2071 884.399 24.4579 848.63 18.0303V18.0293C831.899 15.0186 813.812 12.4703 796.013 10.7285L792.458 10.3906C773.521 8.64913 755.969 7.81251 736.294 7.8125C693.298 7.8125 664.659 9.60698 640.31 12.4951L637.967 12.7783C614.665 15.6405 596.099 19.5216 579.16 23.6045L575.792 24.4229C558.525 28.664 542.539 33.0594 519.599 36.5547L517.357 36.8906C493.204 40.4377 459.349 43.1289 412.581 43.1289H13.4565C9.69717 43.1289 6.0561 43.0047 3.14209 42.7773L1.93994 42.6738C0.408797 42.5281 -0.84491 42.3514 -1.74072 42.1455C-2.17657 42.0453 -2.60836 41.9206 -2.9624 41.752C-3.13515 41.6697 -3.37293 41.5385 -3.58838 41.332C-3.77675 41.1514 -4.0495 40.8107 -4.11475 40.3184L-4.12939 40.0977L-4.11475 39.8779C-4.0496 39.3854 -3.77683 39.0449 -3.58838 38.8643C-3.3728 38.6576 -3.13522 38.5256 -2.9624 38.4434C-2.60835 38.2748 -2.17655 38.1499 -1.74072 38.0498C-0.844944 37.844 0.408877 37.6682 1.93994 37.5225L3.14209 37.418C6.05606 37.1906 9.69715 37.0664 13.4565 37.0664H412.581C447.04 37.0664 468.907 35.2637 489.768 32.2012C510.627 29.139 526.895 24.8895 544.932 20.4561L548.333 19.624C565.443 15.4571 584.251 11.226 611.446 7.88574L614.201 7.55566C643.042 4.16899 683.489 1.75 736.294 1.75Z" fill="#C6A622" stroke="#C6A622" stroke-width="3"/>
</svg>
