<svg width="480" height="80" viewBox="0 0 480 80" fill="none" xmlns="http://www.w3.org/2000/svg">
<path d="M128.255 1.5C143.175 1.5 156.623 2.85876 168.115 4.99414H168.116L170.253 5.40527C180.846 7.50792 190.066 10.3244 198.913 13.5381C217.792 20.3956 233.948 29.3566 250.712 38.1914C266.973 46.7612 284.009 55.2137 302.773 61.5723L304.595 62.1807L304.596 62.1816L306.423 62.7764C315.57 65.7154 324.895 68.0928 334.928 69.7383H334.929L336.941 70.0586C347.037 71.6091 357.571 72.417 368.756 72.417C389.662 72.417 405.785 70.5424 420.557 67.4385L421.937 67.1436C436.121 64.0651 448.173 59.8874 458.891 55.6582H458.892L460.946 54.8428C471.156 50.7622 480.42 46.6489 490.033 43.3984L491.007 43.0732C495.891 41.4635 501.03 40.0895 506.767 39.0068H506.768L507.937 38.7939C513.867 37.7459 521.072 36.961 529.09 36.9609C568.765 36.9609 580.86 36.9847 599.85 37.0078C618.838 37.031 644.724 37.0537 711.983 37.0537C714.171 37.0537 716.311 37.2197 717.936 37.5322C718.737 37.6864 719.461 37.8844 720.021 38.1445C720.298 38.2727 720.615 38.4525 720.885 38.7119C721.155 38.9719 721.5 39.4385 721.5 40.0957C721.5 40.7527 721.155 41.2185 720.885 41.4785C720.615 41.738 720.298 41.9177 720.021 42.0459C719.461 42.3061 718.737 42.505 717.936 42.6592C716.311 42.9717 714.171 43.1367 711.983 43.1367C644.707 43.1367 618.816 43.1137 599.828 43.0898C580.841 43.0659 568.755 43.042 529.09 43.042C526.05 43.042 522.504 43.2931 518.354 44.0762H518.353C514.206 44.8555 509.714 46.1924 505.024 47.7812H505.023C495.621 50.9618 486.012 55.2824 474.533 59.7998C463.459 64.1582 450.905 68.5682 434.771 72.0615L433.198 72.3965C416.305 75.9431 395.068 78.5 368.756 78.5C353.353 78.5 339.242 77.3843 326.872 75.498L324.422 75.1104C312.288 73.1203 301.486 70.3792 291.594 67.2139L289.627 66.5752C268.787 59.7012 251.137 50.7865 234.29 41.9062C217.94 33.2882 202.59 24.792 185.518 18.4141L183.86 17.8037H183.859C175.016 14.5892 165.412 11.9014 156.04 10.1602C146.668 8.4189 137.988 7.58301 128.255 7.58301C106.207 7.58303 91.806 9.50182 79.5225 12.5498C67.241 15.5973 57.6154 19.8013 48.7539 24.1934L48.7549 24.1943C39.9116 28.5822 31.61 33.2083 19.4619 36.8125C7.30325 40.4198 -9.67986 43.1406 -33.0732 43.1406H-231.983C-233.897 43.1406 -235.775 43.0136 -237.303 42.7725L-237.936 42.6621C-238.737 42.508 -239.461 42.309 -240.021 42.0488C-240.298 41.9206 -240.615 41.7409 -240.885 41.4814C-241.138 41.2377 -241.457 40.8131 -241.496 40.2197L-241.5 40.0986L-241.496 39.9775C-241.457 39.3841 -241.138 38.9597 -240.885 38.7158C-240.615 38.4565 -240.298 38.2766 -240.021 38.1484C-239.461 37.8883 -238.737 37.6893 -237.936 37.5352L-237.303 37.4248C-235.775 37.1837 -233.898 37.0566 -231.983 37.0566H-33.0732C-15.9951 37.0566 -5.20529 35.2537 5.07715 32.2041C15.3634 29.1533 23.3799 24.9241 32.3975 20.4463H32.3984L34.0977 19.6055C42.6516 15.3968 52.1037 11.1007 65.7646 7.71094L67.1475 7.375C81.6256 3.94031 101.874 1.50002 128.255 1.5Z" fill="#C6A622" stroke="#C6A622" stroke-width="3"/>
</svg>
